<mxfile host="app.diagrams.net" modified="2022-02-09T07:07:52.091Z" agent="5.0 (Macintosh; Intel Mac OS X 10_15_2) AppleWebKit/537.36 (KHTML, like Gecko) Chrome/97.0.4692.99 Safari/537.36" etag="Gxgq-VYgHl1MLSOnqU3C" version="16.5.4" type="github">
  <diagram id="4htZDOzP5jDUyGYkSnRW" name="Page-1">
    <mxGraphModel dx="2194" dy="1145" grid="1" gridSize="10" guides="1" tooltips="1" connect="1" arrows="1" fold="1" page="1" pageScale="1" pageWidth="827" pageHeight="1169" math="0" shadow="0">
      <root>
        <mxCell id="0" />
        <mxCell id="1" parent="0" />
      </root>
    </mxGraphModel>
  </diagram>
</mxfile>
